<svg
          version="1.1"
          xmlns="http://www.w3.org/2000/svg"
          width="100%"
          height="100%"
          preserveAspectRatio="none"
          viewBox="0 0 1917 627"
        >
          <path
            d="M0 0 C632.61 0 1265.22 0 1917 0 C1917 206.91 1917 413.82 1917 627 C1284.39 627 651.78 627 0 627 C0 420.09 0 213.18 0 0 Z "
            fill="#FEFEFE"
            transform="translate(0,0)"
          />
          <path
            d="M0 0 C202.62 0 405.24 0 614 0 C614 204.93 614 409.86 614 621 C268.49 621 -77.02 621 -433 621 C-428.30908849 599.89089822 -428.30908849 599.89089822 -425.875 592.8125 C-425.58278564 591.95285645 -425.29057129 591.09321289 -424.98950195 590.20751953 C-413.30608677 556.73937174 -395.54244587 524.41666863 -371.23046875 498.40625 C-370.01493489 497.09492101 -368.80786366 495.77459195 -367.64794922 494.41381836 C-362.25542339 488.08813084 -356.41482798 482.22872121 -350.54052734 476.35522461 C-348.76238228 474.57489748 -346.99240439 472.78671623 -345.22265625 470.99804688 C-338.45665473 464.19847055 -331.55021524 457.93038628 -324 452 C-322.61305943 450.86803709 -321.22870848 449.73288955 -319.84765625 448.59375 C-289.49713775 423.7451202 -256.29847103 402.45918482 -223.65287781 380.77944946 C-217.76031714 376.86572784 -211.90976198 372.91038014 -206.1875 368.75 C-205.44814209 368.21407227 -204.70878418 367.67814453 -203.94702148 367.12597656 C-174.9466135 345.96690687 -147.42924475 322.64474874 -122.08911133 297.21948242 C-120.17577806 295.30074495 -118.25709496 293.38747246 -116.33789062 291.47460938 C-110.34442112 285.48433876 -104.47667163 279.47279748 -99 273 C-97.5867645 271.4551874 -96.17059591 269.91304675 -94.75 268.375 C-89.70917218 262.7807029 -85.08910288 256.90194921 -80.49755859 250.93896484 C-78.95174596 248.93752306 -77.39256558 246.94700943 -75.83203125 244.95703125 C-40.37373258 199.49630904 -14.43273368 146.647906 -3 90 C-2.68240723 88.43427246 -2.68240723 88.43427246 -2.35839844 86.83691406 C1.61145947 66.19491124 1.4552871 45.57002702 1.23828125 24.62890625 C1.23070297 23.76512863 1.22312469 22.90135101 1.21531677 22.01139832 C1.10503571 14.62054709 0.52937614 7.41126594 0 0 Z "
            fill="#EEF1FD"
            transform="translate(1303,0)"
          />
        </svg>